# xmcd
# 
# Track frame offsets:
#     150
#     16264
#     28755
#     45425
#     64651
#     81563
#     102130
#     110448
#     126720
#     153876
#     171888
#     189752
#     215434
#     235158
#     257003
#     267988
#     289459
# 
# Disc length: 4152
# 
# Revision: 0
# Processed by: cddbd v1.5.2PL0 Copyright (c) Steve Scherf et al.
# Submitted via: fre:ac v1.0.17
# 
DISCID=ee103611
DTITLE=The Mountaineers - Live Whazzup?
DYEAR=2005
DGENRE=Country
TTITLE0=East Bound And Down
TTITLE1=The Sun Is Gone
TTITLE2=Take It Easy
TTITLE3=God Must Be A Cowboy
TTITLE4=Highway 40 Blues
TTITLE5=Knockin' On Heaven's Door
TTITLE6=Yakety Axe
TTITLE7=I Can`t Remember Your Name
TTITLE8=Leavin' On A Jet Plane
TTITLE9=Long Haired Country Boy
TTITLE10=Friends In Low Places
TTITLE11=Ghost Riders In The Sky
TTITLE12=Man Of Constant Sorrow
TTITLE13=I Am Drunk
TTITLE14=Lookin' At The World Through A Windshield
TTITLE15=Mountain Music
TTITLE16=Silver Wings
EXTD=
EXTT0=
EXTT1=
EXTT2=
EXTT3=
EXTT4=
EXTT5=
EXTT6=
EXTT7=
EXTT8=
EXTT9=
EXTT10=
EXTT11=
EXTT12=
EXTT13=
EXTT14=
EXTT15=
EXTT16=
PLAYORDER=
